<svg width="20" height="20" viewBox="0 0 20 20" fill="none" xmlns="http://www.w3.org/2000/svg">
<g clip-path="url(#clip0_51_170)">
<path d="M19.5383 15.0709C19.2324 14.8559 15.8848 12.63 15.4745 12.3794C15.2958 12.27 15.0777 12.2166 14.8405 12.2166C14.5345 12.2166 14.1958 12.3056 13.8652 12.4797C13.543 12.6494 12.5671 13.2047 12.0895 13.4775C11.6689 13.1822 10.6808 12.4253 9.12392 10.8669C7.57675 9.32032 6.813 8.32409 6.51581 7.90126C6.788 7.42407 7.34269 6.44813 7.51144 6.12688C7.83113 5.52126 7.8674 4.91657 7.608 4.50876C7.36458 4.12438 5.14769 0.76251 4.91894 0.44626C4.70363 0.147822 4.31706 -0.0134277 3.89771 -0.0134277C3.56677 -0.0134277 3.21583 0.0865723 2.91146 0.298447C2.88208 0.319385 -0.0591846 2.45188 -0.0201222 3.6647C0.0883349 7.07157 3.39894 11.0753 6.15705 13.8344C8.91515 16.5934 12.9192 19.905 16.3395 20.0141H16.3677C17.5652 20.0141 19.6702 17.11 19.6905 17.0812C20.2427 16.2922 20.0414 15.4234 19.5383 15.0709ZM18.6749 16.3532C17.8821 17.4513 16.7564 18.5982 16.3158 18.7623C13.9714 18.6523 10.6818 16.5919 7.04081 12.9504C3.40019 9.30851 1.34019 6.02257 1.23144 3.68601C1.38957 3.24413 2.53642 2.11132 3.62455 1.32444C3.70517 1.26882 3.80455 1.23663 3.89736 1.23663C3.91796 1.23663 3.93515 1.23851 3.94861 1.24101C4.30017 1.75194 6.18736 4.60884 6.52986 5.14288C6.53111 5.19913 6.51206 5.3419 6.40486 5.54567C6.29079 5.76286 5.93548 6.39599 5.43017 7.28161L5.03705 7.97067L5.49298 8.62005C5.83298 9.10286 6.64173 10.1525 8.23954 11.7507C9.84423 13.356 10.8902 14.1623 11.3711 14.5004L12.0205 14.9563L12.7095 14.5625C13.3774 14.181 14.1842 13.7238 14.4468 13.586C14.6574 13.475 14.8014 13.4663 14.8405 13.4663C14.8468 13.4663 14.8521 13.4663 14.8564 13.4669C15.3349 13.7672 18.2536 15.705 18.7689 16.0585C18.7774 16.1085 18.7695 16.2172 18.6749 16.3532ZM13.3576 7.46661L18.7335 2.12341L18.7164 5.15185C18.7107 5.40466 18.911 5.62435 19.1639 5.61843L19.4845 5.61811C19.7376 5.61187 19.9464 5.46186 19.9517 5.20936L19.9645 0.69749C19.9645 0.693135 19.9476 0.69001 19.9476 0.685635L19.9723 0.456885C19.9748 0.33001 19.9454 0.216885 19.8629 0.135947C19.7823 0.0544043 19.6689 0.00469727 19.5429 0.0081543L19.3145 0.0134668C19.3101 0.0134668 19.3067 0.0153418 19.3017 0.0159668L14.8198 -0.00405273C14.5673 0.0015918 14.3586 0.210342 14.3527 0.463154L14.352 0.783779C14.3904 1.0813 14.6242 1.25565 14.877 1.25003L17.8311 1.25784L12.4739 6.58257C12.2298 6.82663 12.2298 7.22257 12.4739 7.46663C12.7179 7.7104 13.1136 7.7104 13.3576 7.46663L13.3576 7.46661Z" fill="white"/>
</g>
<defs>
<clipPath id="clip0_51_170">
<rect width="20" height="20" fill="white"/>
</clipPath>
</defs>
</svg>
