<svg width="20" height="20" viewBox="0 0 20 20" fill="none" xmlns="http://www.w3.org/2000/svg">
<g clip-path="url(#clip0_51_166)">
<path d="M0.429203 9.88041C0.428735 11.5608 0.871122 13.2016 1.71232 14.6478L0.348755 19.589L5.44371 18.2631C6.85292 19.0245 8.43182 19.4235 10.0363 19.4236H10.0405C15.3372 19.4236 19.6489 15.1458 19.6511 9.88793C19.6521 7.3401 18.6533 4.94428 16.8386 3.1418C15.0242 1.33948 12.6112 0.346378 10.0401 0.345215C4.7428 0.345215 0.431468 4.62273 0.429281 9.88041" fill="url(#paint0_linear_51_166)"/>
<path d="M0.0862581 9.87721C0.0857113 11.6181 0.543954 13.3175 1.41514 14.8155L0.00268555 19.9339L5.28033 18.5605C6.73449 19.3474 8.37173 19.7622 10.0377 19.7629H10.042C15.5287 19.7629 19.9953 15.3312 19.9976 9.88512C19.9985 7.24574 18.9638 4.7638 17.0843 2.89674C15.2045 1.02992 12.7052 0.00108527 10.042 0C4.55434 0 0.088445 4.43101 0.0862581 9.87721ZM3.22929 14.5575L3.03223 14.2471C2.20385 12.9398 1.76661 11.4291 1.76724 9.87783C1.76896 5.35109 5.48083 1.66822 10.0451 1.66822C12.2555 1.66915 14.3328 2.52434 15.8952 4.07597C17.4576 5.62775 18.3173 7.69054 18.3167 9.8845C18.3147 14.4112 14.6027 18.0946 10.042 18.0946H10.0387C8.55372 18.0938 7.09729 17.698 5.82714 16.95L5.52488 16.7721L2.39302 17.5871L3.22929 14.5575Z" fill="url(#paint1_linear_51_166)"/>
<path d="M7.5536 5.74801C7.36724 5.33692 7.17111 5.32863 6.99389 5.32142C6.84877 5.31522 6.68288 5.31568 6.51714 5.31568C6.35124 5.31568 6.0817 5.37762 5.85387 5.62452C5.6258 5.87165 4.98315 6.46886 4.98315 7.68351C4.98315 8.89816 5.87457 10.0721 5.99883 10.237C6.12326 10.4016 7.71972 12.974 10.2481 13.9636C12.3495 14.786 12.7771 14.6224 13.2332 14.5812C13.6893 14.5401 14.705 13.9841 14.9122 13.4076C15.1196 12.8312 15.1196 12.3371 15.0574 12.2338C14.9952 12.131 14.8293 12.0692 14.5806 11.9458C14.3318 11.8223 13.1087 11.225 12.8808 11.1426C12.6527 11.0603 12.4869 11.0192 12.321 11.2664C12.1551 11.5132 11.6787 12.0692 11.5335 12.2338C11.3885 12.3989 11.2433 12.4194 10.9946 12.2959C10.7457 12.172 9.94455 11.9117 8.99409 11.0706C8.25459 10.4162 7.75534 9.60808 7.61022 9.36088C7.4651 9.11405 7.59468 8.98026 7.71941 8.85723C7.83118 8.74661 7.96826 8.56894 8.09276 8.42483C8.21679 8.28064 8.25818 8.17777 8.34113 8.01312C8.42416 7.84832 8.3826 7.70413 8.32051 7.58064C8.25818 7.45715 7.77479 6.23615 7.5536 5.74801Z" fill="white"/>
</g>
<defs>
<linearGradient id="paint0_linear_51_166" x1="965.467" y1="1924.73" x2="965.467" y2="0.345215" gradientUnits="userSpaceOnUse">
<stop stop-color="#1FAF38"/>
<stop offset="1" stop-color="#60D669"/>
</linearGradient>
<linearGradient id="paint1_linear_51_166" x1="999.749" y1="1993.39" x2="999.749" y2="0" gradientUnits="userSpaceOnUse">
<stop stop-color="#F9F9F9"/>
<stop offset="1" stop-color="white"/>
</linearGradient>
<clipPath id="clip0_51_166">
<rect width="20" height="20" fill="white"/>
</clipPath>
</defs>
</svg>
