<svg width="24" height="24" viewBox="0 0 24 24" fill="none" xmlns="http://www.w3.org/2000/svg">
<circle cx="11.5" cy="12.5" r="6.5" fill="white"/>
<path d="M9.02295 21.23L7.35295 18.416L4.17695 17.731L4.48895 14.454L2.34595 12L4.48995 9.54604L4.17695 6.27004L7.35395 5.58504L9.02295 2.77004L11.9999 4.02704L14.9769 2.76904L16.6469 5.58504L19.8229 6.26904L19.5109 9.54604L21.6549 12L19.5129 14.454L19.8239 17.731L16.6469 18.415L14.9779 21.231L11.9999 19.973L9.02295 21.23ZM10.9499 14.858L15.9079 9.90004L15.1999 9.18004L10.9499 13.43L8.79995 11.292L8.09195 12L10.9499 14.858Z" fill="url(#paint0_linear_128_15)"/>
<defs>
<linearGradient id="paint0_linear_128_15" x1="12.0004" y1="2.76904" x2="12.0004" y2="21.231" gradientUnits="userSpaceOnUse">
<stop stop-color="#66ADFF"/>
<stop offset="1" stop-color="#1F5797"/>
</linearGradient>
</defs>
</svg>
