<svg width="42" height="42" viewBox="0 0 42 42" fill="none" xmlns="http://www.w3.org/2000/svg">
<path d="M13.1667 34.8942H4.20833C3.25797 34.8942 2.34654 34.5167 1.67453 33.8447C1.00253 33.1727 0.625 32.2612 0.625 31.3109V4.20833C0.625 3.25797 1.00253 2.34654 1.67453 1.67453C2.34654 1.00253 3.25797 0.625 4.20833 0.625H36.4583C37.4087 0.625 38.3201 1.00253 38.9921 1.67453C39.6641 2.34654 40.0417 3.25797 40.0417 4.20833V16.0817M0.625 9.19275H40.0417M40.9375 36.2487L30.1875 40.8551V28.5696L40.9375 23.965V36.2487Z" stroke="url(#paint0_linear_62_363)" stroke-opacity="0.64" stroke-width="1.25" stroke-linecap="round" stroke-linejoin="round"/>
<path d="M19.4375 36.2487L30.1875 40.8551V28.5696L19.4375 23.965V36.2487Z" stroke="url(#paint1_linear_62_363)" stroke-opacity="0.64" stroke-width="1.25" stroke-linecap="round" stroke-linejoin="round"/>
<path d="M30.1875 19.3551L40.9375 23.9633L30.1875 28.5696L19.4375 23.9651L30.1875 19.3551Z" stroke="url(#paint2_linear_62_363)" stroke-opacity="0.64" stroke-width="1.25" stroke-linecap="round" stroke-linejoin="round"/>
<defs>
<linearGradient id="paint0_linear_62_363" x1="20.7812" y1="0.625" x2="20.7813" y2="40.8551" gradientUnits="userSpaceOnUse">
<stop stop-color="#6942FD"/>
<stop offset="1" stop-color="#CCAAFC"/>
</linearGradient>
<linearGradient id="paint1_linear_62_363" x1="24.8125" y1="23.965" x2="24.8125" y2="40.8551" gradientUnits="userSpaceOnUse">
<stop stop-color="#6942FD"/>
<stop offset="1" stop-color="#CCAAFC"/>
</linearGradient>
<linearGradient id="paint2_linear_62_363" x1="30.1875" y1="19.3551" x2="30.1875" y2="28.5696" gradientUnits="userSpaceOnUse">
<stop stop-color="#6942FD"/>
<stop offset="1" stop-color="#CCAAFC"/>
</linearGradient>
</defs>
</svg>
