<svg width="43" height="43" viewBox="0 0 43 43" fill="none" xmlns="http://www.w3.org/2000/svg">
<path d="M21.5 38.5209C26.0142 38.5209 30.3435 36.7276 33.5355 33.5356C36.7275 30.3435 38.5208 26.0142 38.5208 21.5C38.5208 16.9858 36.7275 12.6565 33.5355 9.46447C30.3435 6.27245 26.0142 4.47919 21.5 4.47919C16.9858 4.47919 12.6564 6.27245 9.46441 9.46447C6.27239 12.6565 4.47913 16.9858 4.47913 21.5C4.47913 26.0142 6.27239 30.3435 9.46441 33.5356C12.6564 36.7276 16.9858 38.5209 21.5 38.5209Z" stroke="url(#paint0_linear_62_378)" stroke-width="1.25" stroke-linecap="round" stroke-linejoin="round"/>
<path d="M16.125 25.8591C16.2393 27.1777 16.8664 28.3988 17.8716 29.2598C18.8767 30.1209 20.1795 30.5532 21.5 30.4637C25.8358 30.4637 26.875 27.9733 26.875 25.8591C26.875 23.745 25.0833 21.5054 21.5 21.5054C17.9167 21.5054 16.125 20.09 16.125 17.2054C16.1584 16.5418 16.3257 15.8918 16.6168 15.2945C16.9079 14.6972 17.3168 14.165 17.819 13.7298C18.3211 13.2947 18.906 12.9655 19.5386 12.7623C20.1712 12.559 20.8384 12.4858 21.5 12.5471C22.8214 12.4902 24.1144 12.9411 25.1139 13.8073C26.1134 14.6735 26.7435 15.8893 26.875 17.2054M21.5 33.1459V30.8167M21.5 9.85419V12.5399" stroke="url(#paint1_linear_62_378)" stroke-width="1.25" stroke-linecap="round" stroke-linejoin="round"/>
<defs>
<linearGradient id="paint0_linear_62_378" x1="21.5" y1="4.47919" x2="21.5" y2="38.5209" gradientUnits="userSpaceOnUse">
<stop stop-color="#6942FD"/>
<stop offset="1" stop-color="#CCAAFC"/>
</linearGradient>
<linearGradient id="paint1_linear_62_378" x1="21.5" y1="9.85419" x2="21.5" y2="33.1459" gradientUnits="userSpaceOnUse">
<stop stop-color="#6942FD"/>
<stop offset="1" stop-color="#CCAAFC"/>
</linearGradient>
</defs>
</svg>
