<svg width="43" height="43" viewBox="0 0 43 43" fill="none" xmlns="http://www.w3.org/2000/svg">
<path d="M21.5 28.6667H21.5143M21.5 14.3333V23.2917M5.78704 14.1775L14.172 5.78708C14.4408 5.51833 14.7991 5.375 15.1933 5.375H27.8245C28.2008 5.375 28.577 5.51833 28.8458 5.78708L37.2129 14.1595C37.4816 14.4283 37.625 14.7866 37.625 15.1808V27.8192C37.625 28.1955 37.4816 28.5717 37.2129 28.8405L28.8458 37.2129C28.577 37.4817 28.2187 37.625 27.8245 37.625H15.1754C14.9864 37.627 14.7989 37.5917 14.6236 37.521C14.4483 37.4502 14.2888 37.3455 14.1541 37.2129L5.78704 28.8405C5.65442 28.7058 5.54973 28.5463 5.47901 28.371C5.40829 28.1957 5.37293 28.0082 5.37496 27.8192V15.1808C5.37496 14.8045 5.51829 14.4283 5.78704 14.1595V14.1775Z" stroke="url(#paint0_linear_62_391)" stroke-width="1.25" stroke-miterlimit="10" stroke-linecap="round" stroke-linejoin="round"/>
<defs>
<linearGradient id="paint0_linear_62_391" x1="21.4999" y1="5.375" x2="21.4999" y2="37.6251" gradientUnits="userSpaceOnUse">
<stop stop-color="#6942FD"/>
<stop offset="1" stop-color="#CCAAFC"/>
</linearGradient>
</defs>
</svg>
