<svg width="36" height="29" viewBox="0 0 36 29" fill="none" xmlns="http://www.w3.org/2000/svg">
<path d="M35.3487 23.3275C34.3095 22.2883 33.2703 21.2313 32.2133 20.1921C32.0699 20.0488 31.9266 19.8875 31.7653 19.7442C31.6836 19.6608 31.586 19.5945 31.4784 19.5492C31.3707 19.504 31.255 19.4807 31.1383 19.4807C31.0215 19.4807 30.9058 19.504 30.7982 19.5492C30.6905 19.5945 30.5929 19.6608 30.5112 19.7442C30.4272 19.8275 30.3606 19.9265 30.3151 20.0357C30.2696 20.1449 30.2462 20.262 30.2462 20.3802C30.2462 20.4985 30.2696 20.6156 30.3151 20.7247C30.3606 20.8339 30.4272 20.933 30.5112 21.0163L32.5537 23.0588H12.9349C11.88 23.0588 10.8683 22.6397 10.1224 21.8938C9.37648 21.1479 8.95742 20.1362 8.95742 19.0813C8.95742 18.0264 9.37648 17.0147 10.1224 16.2687C10.8683 15.5228 11.88 15.1038 12.9349 15.1038H18.3099C19.0664 15.1038 19.8154 14.9548 20.5143 14.6653C21.2131 14.3758 21.8481 13.9515 22.383 13.4166C22.9179 12.8817 23.3422 12.2467 23.6317 11.5479C23.9211 10.849 24.0701 10.1 24.0701 9.34355C24.0701 8.58711 23.9211 7.83808 23.6317 7.13921C23.3422 6.44035 22.9179 5.80535 22.383 5.27047C21.8481 4.73558 21.2131 4.31129 20.5143 4.02181C19.8154 3.73234 19.0664 3.58334 18.3099 3.58334H8.86784C8.64583 2.49576 8.02791 1.52936 7.13387 0.87148C6.23983 0.213603 5.13336 -0.0888737 4.02897 0.0226919C2.92458 0.134257 1.90096 0.651917 1.15656 1.47531C0.412155 2.2987 0 3.36917 0 4.47918C0 5.58918 0.412155 6.65965 1.15656 7.48304C1.90096 8.30644 2.92458 8.82409 4.02897 8.93566C5.13336 9.04723 6.23983 8.74475 7.13387 8.08687C8.02791 7.429 8.64583 6.46259 8.86784 5.37501H18.3099C19.3624 5.37501 20.3719 5.79312 21.1161 6.53737C21.8603 7.28161 22.2785 8.29103 22.2785 9.34355C22.2785 10.3961 21.8603 11.4055 21.1161 12.1497C20.3719 12.894 19.3624 13.3121 18.3099 13.3121H12.9349C12.1773 13.3121 11.4271 13.4613 10.7272 13.7512C10.0272 14.0412 9.39122 14.4661 8.8555 15.0018C8.31979 15.5376 7.89483 16.1735 7.6049 16.8735C7.31498 17.5734 7.16575 18.3236 7.16575 19.0813C7.16575 19.8389 7.31498 20.5891 7.6049 21.289C7.89483 21.989 8.31979 22.625 8.8555 23.1607C9.39122 23.6964 10.0272 24.1213 10.7272 24.4113C11.4271 24.7012 12.1773 24.8504 12.9349 24.8504H32.5716L30.9591 26.4629C30.7978 26.6063 30.6545 26.7675 30.5112 26.9108C30.4272 26.9941 30.3606 27.0932 30.3151 27.2024C30.2696 27.3115 30.2462 27.4286 30.2462 27.5469C30.2462 27.6651 30.2696 27.7822 30.3151 27.8914C30.3606 28.0006 30.4272 28.0996 30.5112 28.1829C30.6808 28.3429 30.9051 28.4321 31.1383 28.4321C31.3714 28.4321 31.5958 28.3429 31.7653 28.1829L34.9008 25.0475L35.3487 24.5996C35.4326 24.5163 35.4993 24.4172 35.5448 24.3081C35.5902 24.1989 35.6137 24.0818 35.6137 23.9636C35.6137 23.8453 35.5902 23.7282 35.5448 23.619C35.4993 23.5099 35.4326 23.4108 35.3487 23.3275ZM4.47825 7.16668C3.94671 7.16668 3.42711 7.00906 2.98516 6.71375C2.5432 6.41844 2.19874 5.99871 1.99533 5.50764C1.79192 5.01656 1.73869 4.4762 1.84239 3.95487C1.94609 3.43355 2.20205 2.95468 2.5779 2.57883C2.95376 2.20297 3.43262 1.94701 3.95395 1.84332C4.47527 1.73962 5.01564 1.79284 5.50671 1.99625C5.99779 2.19966 6.41752 2.54412 6.71283 2.98608C7.00813 3.42804 7.16575 3.94764 7.16575 4.47918C7.16575 5.19195 6.88261 5.87552 6.3786 6.37953C5.8746 6.88353 5.19102 7.16668 4.47825 7.16668Z" fill="url(#paint0_linear_62_417)"/>
<defs>
<linearGradient id="paint0_linear_62_417" x1="17.8068" y1="0" x2="17.8068" y2="28.4321" gradientUnits="userSpaceOnUse">
<stop stop-color="#6942FD"/>
<stop offset="1" stop-color="#CCAAFC"/>
</linearGradient>
</defs>
</svg>
