<svg width="43" height="43" viewBox="0 0 43 43" fill="none" xmlns="http://www.w3.org/2000/svg">
<path d="M35.6308 22.4514L38.0603 24.6148C38.509 24.9892 38.8087 25.5119 38.9054 26.0881C39.002 26.6644 38.8891 27.2563 38.5871 27.7565L35.6577 32.7606C35.4304 33.1437 35.1059 33.4599 34.7171 33.6771C34.3237 33.8947 33.882 34.0102 33.4324 34.013C33.1536 34.0147 32.8761 33.973 32.6101 33.8894L29.5006 32.8628C28.956 33.2121 28.3898 33.5248 27.8021 33.8007L27.1491 36.9531C27.0282 37.533 26.7053 38.0512 26.238 38.4151C25.7648 38.7856 25.178 38.9812 24.5771 38.9688H18.5114C17.9106 38.9812 17.3238 38.7856 16.8506 38.4151C16.3842 38.0507 16.0623 37.5326 15.9422 36.9531L15.2864 33.8007C14.7065 33.5211 14.1438 33.207 13.6014 32.8601L10.4812 33.8894C10.2151 33.973 9.9377 34.0147 9.65882 34.013C9.21016 34.0098 8.76945 33.8943 8.37688 33.6771C7.98837 33.4606 7.6639 33.1454 7.43626 32.7633L4.40207 27.7565C4.08663 27.2517 3.96611 26.6493 4.06308 26.062C4.16005 25.4747 4.46786 24.943 4.92882 24.5664L7.35563 21.5V20.5486L4.92613 18.3852C4.47749 18.0108 4.17772 17.4882 4.0811 16.9119C3.98447 16.3356 4.09738 15.7437 4.39938 15.2435L7.43357 10.2394C7.66084 9.85632 7.98535 9.54016 8.37419 9.32295C8.76677 9.10572 9.20748 8.99023 9.65613 8.98701C9.9325 8.96957 10.2099 8.99496 10.4785 9.06226L13.5369 10.1373C14.0833 9.78788 14.6495 9.47524 15.2354 9.19932L15.8911 6.04688C16.0113 5.46737 16.3332 4.9493 16.7995 4.58488C17.2728 4.2144 17.8595 4.01882 18.4604 4.03126H24.475C25.0759 4.01882 25.6626 4.2144 26.1359 4.58488C26.6062 4.95307 26.9287 5.47176 27.0443 6.04688L27.7 9.19932C28.2823 9.47703 28.844 9.79057 29.3851 10.1399L32.5079 9.11332C32.8545 9.00057 33.2208 8.96099 33.5834 8.99707C33.9461 9.03315 34.2974 9.14412 34.6149 9.32295C35.0046 9.54332 35.3271 9.86045 35.5556 10.2367L38.5871 15.2435C38.9068 15.744 39.0334 16.3437 38.9434 16.9307C38.8534 17.5177 38.5529 18.0519 38.0979 18.4336L35.6308 20.5352V22.4514Z" stroke="url(#paint0_linear_62_410)" stroke-width="1.25"/>
<path d="M28.2188 21.5C28.2188 23.2819 27.5109 24.9909 26.2509 26.2509C24.9909 27.5109 23.2819 28.2188 21.5 28.2188C19.7181 28.2188 18.0091 27.5109 16.7491 26.2509C15.4891 24.9909 14.7813 23.2819 14.7812 21.5C14.7813 19.7181 15.4891 18.0092 16.7491 16.7491C18.0091 15.4891 19.7181 14.7813 21.5 14.7813C23.2819 14.7813 24.9909 15.4891 26.2509 16.7491C27.5109 18.0092 28.2188 19.7181 28.2188 21.5Z" stroke="url(#paint1_linear_62_410)" stroke-width="1.25"/>
<defs>
<linearGradient id="paint0_linear_62_410" x1="21.501" y1="4.0307" x2="21.501" y2="38.9693" gradientUnits="userSpaceOnUse">
<stop stop-color="#6942FD"/>
<stop offset="1" stop-color="#CCAAFC"/>
</linearGradient>
<linearGradient id="paint1_linear_62_410" x1="21.5" y1="14.7813" x2="21.5" y2="28.2188" gradientUnits="userSpaceOnUse">
<stop stop-color="#6942FD"/>
<stop offset="1" stop-color="#CCAAFC"/>
</linearGradient>
</defs>
</svg>
