<svg width="50" height="50" viewBox="0 0 50 50" fill="none" xmlns="http://www.w3.org/2000/svg">
<path d="M50 1.4867C49.999 1.39042 49.991 1.29442 49.976 1.19982C49.976 1.17104 49.9641 1.1453 49.9568 1.11652C49.9496 1.08774 49.9256 0.987357 49.9066 0.924178L49.8707 0.832452C49.8483 0.777733 49.8227 0.725024 49.7939 0.674739C49.7771 0.64315 49.7605 0.611561 49.7412 0.579971L49.7078 0.52545C49.6887 0.499711 49.667 0.479587 49.6479 0.456422L49.6 0.387627L49.5617 0.356038C49.5267 0.320006 49.4899 0.286486 49.4516 0.255654L49.358 0.183817C49.3169 0.157889 49.2745 0.134917 49.2311 0.115023L49.1305 0.0663518C49.085 0.0490361 49.0371 0.0406123 48.9918 0.0289125L48.8887 0.00317304C48.832 -0.00105768 48.7752 -0.00105768 48.7186 0.00317304H48.6229C47.9809 0.0719676 39.4994 1.04211 29.9666 6.13549C24.242 9.18585 19.8107 13.869 17.0229 19.5537L16.3041 19.9267C6.09824 25.3846 0 35.9935 0 48.307V48.5137C0.000123067 48.7971 0.0678133 49.0746 0.195108 49.3136C0.322402 49.5525 0.504005 49.7429 0.718555 49.8624C0.883137 49.9529 1.06207 49.9998 1.24316 50H35.1234C35.1893 50.0003 35.2548 49.9937 35.3197 49.9801L35.4061 49.9544C35.4467 49.9399 35.4875 49.9312 35.5281 49.9139C35.5688 49.8966 35.5881 49.8795 35.6191 49.8624C35.6502 49.8453 35.691 49.828 35.7246 49.8048C35.7879 49.7602 35.8478 49.7095 35.9043 49.6527L49.5568 35.8615C49.6964 35.721 49.8083 35.5452 49.8845 35.3468C49.9607 35.1484 49.9994 34.9322 49.9977 34.7138V1.4867H50ZM37.6551 43.9882L36.3449 45.3112V15.9696L47.5162 4.68916V34.0308L37.6551 43.9882ZM15.351 36.2088H33.8611V47.0243H4.63945L15.351 36.2088ZM30.9746 8.85591C35.3377 6.55427 39.9017 4.84384 44.5818 3.75646L34.5963 13.8433C29.987 14.517 25.4536 15.7959 21.0777 17.6569C23.5494 14.0412 26.8836 11.0424 30.9746 8.85591ZM18.7041 21.9355C23.5669 19.5373 28.6575 17.8651 33.8611 16.9566V33.2331H16.1652C16.2928 29.2866 17.1605 25.4252 18.7041 21.9355ZM15.2961 23.8351C14.2498 27.0887 13.6934 30.5388 13.6529 34.0251L2.63477 45.1647C3.46836 36.114 7.95469 28.544 15.2961 23.8351Z" fill="#6942FD"/>
</svg>
