<svg width="20" height="20" viewBox="0 0 20 20" fill="none" xmlns="http://www.w3.org/2000/svg">
<path d="M9.09999 2.39C9.19169 2.23263 9.32306 2.10206 9.48098 2.01131C9.6389 1.92056 9.81785 1.8728 9.99999 1.8728C10.1821 1.8728 10.3611 1.92056 10.519 2.01131C10.6769 2.10206 10.8083 2.23263 10.9 2.39L13.2292 6.38833L17.7525 7.36833C17.9304 7.407 18.0951 7.49162 18.2301 7.61378C18.3651 7.73593 18.4658 7.89134 18.522 8.06452C18.5783 8.2377 18.5881 8.42259 18.5506 8.60077C18.5131 8.77894 18.4296 8.94418 18.3083 9.08L15.225 12.5308L15.6917 17.135C15.7101 17.3163 15.6806 17.4992 15.6062 17.6656C15.5318 17.8319 15.415 17.9758 15.2676 18.083C15.1202 18.1901 14.9472 18.2566 14.766 18.276C14.5848 18.2954 14.4017 18.2669 14.235 18.1933L9.99999 16.3267L5.76499 18.1933C5.59825 18.2669 5.41515 18.2954 5.23395 18.276C5.05275 18.2566 4.87981 18.1901 4.73238 18.083C4.58495 17.9758 4.46821 17.8319 4.39379 17.6656C4.31938 17.4992 4.28991 17.3163 4.30832 17.135L4.77499 12.5308L1.69165 9.08083C1.57018 8.94502 1.48645 8.77972 1.44883 8.60143C1.41121 8.42314 1.42102 8.23811 1.47727 8.06479C1.53353 7.89148 1.63426 7.73596 1.76941 7.61375C1.90456 7.49154 2.06941 7.40692 2.24749 7.36833L6.77082 6.38833L9.09999 2.39Z" fill="url(#paint0_linear_51_215)"/>
<defs>
<linearGradient id="paint0_linear_51_215" x1="9.99968" y1="1.8728" x2="9.99968" y2="18.2819" gradientUnits="userSpaceOnUse">
<stop stop-color="#FFDE22"/>
<stop offset="1" stop-color="#83710B"/>
</linearGradient>
</defs>
</svg>
