<svg width="20" height="20" viewBox="0 0 20 20" fill="none" xmlns="http://www.w3.org/2000/svg">
<path d="M10 1.66663C14.6025 1.66663 18.3334 5.39746 18.3334 9.99996C18.3334 14.6025 14.6025 18.3333 10 18.3333C5.39752 18.3333 1.66669 14.6025 1.66669 9.99996C1.66669 5.39746 5.39752 1.66663 10 1.66663ZM10 3.33329C8.23191 3.33329 6.53622 4.03567 5.28598 5.28591C4.03573 6.53616 3.33335 8.23185 3.33335 9.99996C3.33335 11.7681 4.03573 13.4638 5.28598 14.714C6.53622 15.9642 8.23191 16.6666 10 16.6666C11.7681 16.6666 13.4638 15.9642 14.7141 14.714C15.9643 13.4638 16.6667 11.7681 16.6667 9.99996C16.6667 8.23185 15.9643 6.53616 14.7141 5.28591C13.4638 4.03567 11.7681 3.33329 10 3.33329ZM10 4.99996C10.2041 4.99999 10.4011 5.07492 10.5537 5.21056C10.7062 5.34619 10.8036 5.53308 10.8275 5.73579L10.8334 5.83329V9.65496L13.0892 11.9108C13.2386 12.0608 13.3254 12.262 13.3319 12.4736C13.3383 12.6852 13.264 12.8914 13.124 13.0502C12.984 13.209 12.7887 13.3085 12.578 13.3286C12.3672 13.3487 12.1567 13.2878 11.9892 13.1583L11.9109 13.0891L9.41085 10.5891C9.28134 10.4595 9.19816 10.2908 9.17419 10.1091L9.16669 9.99996V5.83329C9.16669 5.61228 9.25448 5.40032 9.41076 5.24404C9.56704 5.08776 9.77901 4.99996 10 4.99996Z" fill="url(#paint0_linear_130_16)"/>
<defs>
<linearGradient id="paint0_linear_130_16" x1="10" y1="1.66663" x2="10" y2="18.3333" gradientUnits="userSpaceOnUse">
<stop stop-color="#6942FD"/>
<stop offset="1" stop-color="#CCAAFC"/>
</linearGradient>
</defs>
</svg>
