<svg width="34" height="33" viewBox="0 0 34 33" fill="none" xmlns="http://www.w3.org/2000/svg">
<g clip-path="url(#clip0_62_446)">
<path d="M12.0859 33.2578C15.2469 33.2578 17.7969 30.7828 17.7969 27.7148V22.1719H12.0859C8.925 22.1719 6.375 24.6469 6.375 27.7148C6.375 30.7828 8.925 33.2578 12.0859 33.2578Z" fill="#0ACF83"/>
<path d="M6.375 16.6289C6.375 13.5609 8.925 11.0859 12.0859 11.0859H17.7969V22.1719H12.0859C8.925 22.1719 6.375 19.6969 6.375 16.6289Z" fill="#A259FF"/>
<path d="M6.375 5.54297C6.375 2.475 8.925 0 12.0859 0H17.7969V11.0859H12.0859C8.925 11.0859 6.375 8.61094 6.375 5.54297Z" fill="#F24E1E"/>
<path d="M17.7969 0H23.5078C26.6687 0 29.2188 2.475 29.2188 5.54297C29.2188 8.61094 26.6687 11.0859 23.5078 11.0859H17.7969V0Z" fill="#FF7262"/>
<path d="M29.2188 16.6289C29.2188 19.6969 26.6687 22.1719 23.5078 22.1719C20.3469 22.1719 17.7969 19.6969 17.7969 16.6289C17.7969 13.5609 20.3469 11.0859 23.5078 11.0859C26.6687 11.0859 29.2188 13.5609 29.2188 16.6289Z" fill="#1ABCFE"/>
</g>
<defs>
<clipPath id="clip0_62_446">
<rect width="34" height="33" fill="white"/>
</clipPath>
</defs>
</svg>
