<svg width="34" height="33" viewBox="0 0 34 33" fill="none" xmlns="http://www.w3.org/2000/svg">
<path fill-rule="evenodd" clip-rule="evenodd" d="M23.3851 11.0375C23.8114 12.2345 24.1185 13.4565 24.2194 14.7232C24.3448 16.2945 24.2874 17.8548 23.9461 19.4004C23.9368 19.4429 23.9171 19.4829 23.9025 19.5241C23.7955 19.5244 23.6863 19.5115 23.5817 19.5272C22.6974 19.6621 21.8139 19.8018 20.9305 19.9408C20.0172 20.0844 19.1027 20.2223 18.1911 20.3757C17.8681 20.4298 17.4683 20.3651 17.3379 20.7988C17.3342 20.8106 17.297 20.8127 17.2755 20.8194L17.3196 18.2281L17.2747 11.9757L17.7002 11.9048C18.3961 11.7942 19.0921 11.682 19.7885 11.5745C20.6197 11.4464 21.4516 11.3218 22.2833 11.1968C22.6501 11.1414 23.0175 11.0906 23.3851 11.0375Z" fill="#439934"/>
<path fill-rule="evenodd" clip-rule="evenodd" d="M16.3967 28.3733C15.9478 27.9987 15.4833 27.6406 15.0529 27.2467C12.7375 25.1269 11.0439 22.6321 10.2098 19.6242C9.98003 18.7963 9.82677 17.9551 9.77763 17.0997C9.7431 16.501 9.69316 15.897 9.73672 15.3014C9.8528 13.7174 10.0887 12.1487 10.5673 10.6229L10.5936 10.5873C10.6401 10.6474 10.707 10.7005 10.7307 10.7683C11.1978 12.1038 11.662 13.4402 12.1231 14.7776C13.5729 18.9799 15.0208 23.1833 16.473 27.3846C16.5014 27.4666 16.575 27.5339 16.6278 27.6079L16.3967 28.3733Z" fill="#45A538"/>
<path fill-rule="evenodd" clip-rule="evenodd" d="M23.3851 11.0374C23.0175 11.0906 22.6498 11.1413 22.283 11.1963C21.4513 11.3213 20.6194 11.4458 19.7883 11.5739C19.0918 11.6815 18.3958 11.7936 17.6999 11.9042L17.2744 11.9751L17.2712 11.7057C17.2571 11.4842 17.2329 11.263 17.2303 11.0416C17.212 9.62927 17.2005 8.21697 17.1825 6.80468C17.1713 5.92064 17.1546 5.03685 17.136 4.15307C17.1246 3.60393 17.1123 3.05453 17.0868 2.50617C17.073 2.21149 17.0242 1.91835 17.0042 1.62368C16.9931 1.45429 17.0085 1.28362 17.0119 1.11346C17.229 1.52158 17.4412 1.93279 17.6643 2.33782C18.0168 2.97822 18.5783 3.45002 19.0838 3.96487C21.0821 5.99953 22.5008 8.36521 23.3851 11.0374Z" fill="#46A037"/>
<path fill-rule="evenodd" clip-rule="evenodd" d="M17.2751 20.8191C17.2966 20.8124 17.3341 20.8104 17.3376 20.7985C17.468 20.3649 17.8677 20.4296 18.1907 20.3754C19.1024 20.2223 20.0169 20.0841 20.9301 19.9405C21.8136 19.8016 22.6971 19.6618 23.5813 19.527C23.686 19.511 23.7952 19.5241 23.9022 19.5239C23.737 20.0962 23.6068 20.6809 23.3973 21.2376C23.1593 21.8689 22.8713 22.4851 22.5656 23.0892C22.1082 23.9903 21.5417 24.8353 20.8781 25.6062C20.3683 26.2012 19.8002 26.7511 19.2307 27.2944C18.9159 27.5947 18.5448 27.8394 18.1995 28.1093L18.11 28.05L17.7875 27.7824L17.4539 27.0726C17.226 26.2447 17.1017 25.3931 17.0836 24.5363L17.0897 24.3916L17.1351 23.7662C17.1503 23.5527 17.1705 23.3395 17.1798 23.1255C17.214 22.3567 17.2438 21.5879 17.2751 20.8191Z" fill="#409433"/>
<path fill-rule="evenodd" clip-rule="evenodd" d="M17.2752 20.8191C17.2438 21.5879 17.2141 22.3567 17.1803 23.1258C17.1711 23.3398 17.1509 23.553 17.1357 23.7664L16.9325 23.8409C16.4812 22.5514 16.0297 21.2754 15.5879 19.9962C14.8575 17.8798 14.1358 15.7601 13.4063 13.6432C12.8172 11.9345 12.224 10.2272 11.6267 8.52121C11.5988 8.44129 11.5185 8.3789 11.4628 8.30826L12.7633 5.98743C12.8079 6.06271 12.8669 6.13309 12.895 6.21404C13.4973 7.94193 14.0966 9.67083 14.6928 11.4007C15.4673 13.6514 16.2371 15.9039 17.0111 18.1549C17.042 18.2449 17.093 18.3279 17.1416 18.4287L17.3195 18.2276L17.2752 20.8191Z" fill="#4FAA41"/>
<path fill-rule="evenodd" clip-rule="evenodd" d="M11.463 8.30853C11.5188 8.37917 11.5987 8.44156 11.6269 8.52149C12.2242 10.2275 12.8174 11.9348 13.4066 13.6434C14.136 15.7603 14.8577 17.8801 15.5882 19.9965C16.0296 21.2755 16.4812 22.5516 16.9327 23.8412L17.136 23.7667L17.0905 24.3922L17.0494 24.5363C16.9787 25.221 16.9192 25.9073 16.8331 26.5905C16.7898 26.9329 16.6979 27.2691 16.6281 27.6081C16.5755 27.5341 16.5016 27.4668 16.4732 27.3849C15.021 23.1833 13.5731 18.9802 12.1233 14.7778C11.6621 13.4405 11.198 12.104 10.7309 10.7686C10.7073 10.7008 10.6406 10.6477 10.5939 10.5876L11.463 8.30853Z" fill="#4AA73C"/>
<path fill-rule="evenodd" clip-rule="evenodd" d="M17.3193 18.2278L17.1414 18.4289C17.0927 18.3281 17.0417 18.2449 17.0109 18.1551C16.2372 15.9042 15.4671 13.6517 14.6926 11.401C14.0964 9.67108 13.4971 7.94219 12.8948 6.2143C12.8669 6.13334 12.808 6.0627 12.7631 5.98768L14.3714 3.9342C14.4222 3.99995 14.4944 4.05847 14.5207 4.13246C14.967 5.40124 15.4099 6.67123 15.8496 7.94241C16.2605 9.12938 16.6654 10.3182 17.0811 11.5036C17.109 11.583 17.2059 11.6392 17.2707 11.7062L17.2739 11.9756C17.2893 14.0594 17.3045 16.1435 17.3193 18.2278Z" fill="#57AE47"/>
<path fill-rule="evenodd" clip-rule="evenodd" d="M17.2712 11.7057C17.2064 11.6387 17.1095 11.5825 17.0816 11.5031C16.6659 10.3177 16.2611 9.1289 15.8502 7.94193C15.4105 6.67092 14.9675 5.40093 14.5212 4.13198C14.4949 4.05799 14.4227 3.99946 14.3719 3.93372C14.895 3.43666 15.4018 2.92181 15.9458 2.44769C16.4295 2.02643 16.8184 1.57474 16.8362 0.909066C16.8369 0.88148 16.8518 0.853894 16.8747 0.77655L17.0125 1.11325C17.0091 1.28367 16.9934 1.45408 17.0048 1.62346C17.0247 1.91814 17.0736 2.21128 17.0874 2.50596C17.1129 3.05432 17.1252 3.60372 17.1366 4.15286C17.1549 5.03664 17.1716 5.92043 17.1831 6.80446C17.2009 8.21676 17.2125 9.62906 17.2309 11.0414C17.233 11.2633 17.2569 11.4843 17.2712 11.7057Z" fill="#60B24F"/>
<path fill-rule="evenodd" clip-rule="evenodd" d="M16.6276 27.6079C16.6974 27.2688 16.7893 26.9324 16.8326 26.5903C16.919 25.9073 16.9782 25.2208 17.0489 24.536L17.0664 24.5334L17.0839 24.5363C17.102 25.3931 17.2263 26.2447 17.4542 27.0726C17.4075 27.1325 17.3413 27.1858 17.3166 27.2534C17.1235 27.7819 16.9415 28.3145 16.7474 28.843C16.7208 28.9152 16.647 28.9714 16.5949 29.0349L16.3965 28.3733L16.6276 27.6079Z" fill="#A9AA88"/>
<path fill-rule="evenodd" clip-rule="evenodd" d="M16.5952 29.0351C16.6473 28.9717 16.7214 28.9155 16.7477 28.8433C16.9419 28.3148 17.1241 27.7824 17.3169 27.2536C17.3416 27.1861 17.4075 27.1327 17.4545 27.0729L17.7879 27.7829C17.722 27.8736 17.6312 27.9554 17.5945 28.0564L16.9559 29.8763C16.9296 29.9493 16.8399 30.0009 16.7798 30.0625L16.5952 29.0351Z" fill="#B6B598"/>
<path fill-rule="evenodd" clip-rule="evenodd" d="M16.7798 30.0622C16.8401 30.0009 16.9296 29.9491 16.9559 29.8761L17.5945 28.0562C17.6308 27.9554 17.722 27.8734 17.7878 27.7827L18.1106 28.05C17.9546 28.1995 17.868 28.3723 17.9201 28.5906L17.8221 28.9021C17.7775 28.9554 17.7129 29.0018 17.6909 29.0629C17.468 29.6825 17.2553 30.3053 17.0308 30.9249C17.0024 31.0035 16.9235 31.0651 16.8677 31.1342C16.8387 30.7769 16.8094 30.4196 16.7798 30.0622Z" fill="#C2C1A7"/>
<path fill-rule="evenodd" clip-rule="evenodd" d="M16.868 31.1342C16.9235 31.0649 17.0024 31.0033 17.0311 30.9249C17.2555 30.3056 17.4683 29.6828 17.6912 29.063C17.7132 29.0021 17.7775 28.9555 17.8224 28.9021L17.6872 30.3317C17.651 30.3721 17.5987 30.4075 17.5815 30.4546C17.4287 30.8708 17.2848 31.29 17.1315 31.7061C17.0999 31.7919 17.0393 31.8677 16.992 31.9479C16.9501 31.8945 16.8749 31.843 16.8714 31.7873C16.8579 31.5705 16.8672 31.3521 16.868 31.1342Z" fill="#CECDB7"/>
<path fill-rule="evenodd" clip-rule="evenodd" d="M16.9918 31.9479C17.0391 31.8675 17.0997 31.7917 17.1313 31.7061C17.2848 31.2902 17.4285 30.871 17.5812 30.4546C17.5985 30.4075 17.6511 30.3724 17.687 30.3317L17.6901 31.2701L17.3666 32.0755L16.9918 31.9479Z" fill="#DBDAC7"/>
<path fill-rule="evenodd" clip-rule="evenodd" d="M17.3666 32.0757L17.6901 31.2703L17.7568 32.2232L17.3666 32.0757Z" fill="#EBE9DC"/>
<path fill-rule="evenodd" clip-rule="evenodd" d="M17.9201 28.5909C17.868 28.3725 17.9544 28.1995 18.1105 28.0502L18.2001 28.1095L17.9201 28.5909Z" fill="#CECDB7"/>
<path fill-rule="evenodd" clip-rule="evenodd" d="M17.0839 24.5365L17.0664 24.5337L17.0488 24.5363L17.09 24.3922L17.0839 24.5365Z" fill="#4FAA41"/>
</svg>
