<svg width="29" height="34" viewBox="0 0 29 34" fill="none" xmlns="http://www.w3.org/2000/svg">
<g clip-path="url(#clip0_62_511)">
<path d="M15.284 0.213344C14.7921 -0.0711147 14.2079 -0.0711147 13.716 0.213344L0.773348 7.89467C0.281416 8.17913 0.00476074 8.71649 0.00476074 9.28541V24.6795C0.00476074 25.2485 0.312218 25.7859 0.773348 26.0703L13.716 33.7515C14.2079 34.0361 14.7921 34.0361 15.284 33.7515L28.2267 26.0703C28.7186 25.7859 28.9952 25.2485 28.9952 24.6795V9.28541C28.9952 8.71649 28.6878 8.17913 28.2267 7.89467L15.284 0.213344Z" fill="url(#paint0_linear_62_511)"/>
<mask id="mask0_62_511" style="mask-type:luminance" maskUnits="userSpaceOnUse" x="0" y="-1" width="29" height="35">
<path d="M15.284 0.212917C14.7921 -0.071542 14.2079 -0.071542 13.716 0.212917L0.773348 7.89424C0.281416 8.1787 0.00476074 8.71606 0.00476074 9.28498V24.6791C0.00476074 25.2481 0.312218 25.7855 0.773348 26.0699L13.716 33.7511C14.2079 34.0357 14.7921 34.0357 15.284 33.7511L28.2267 26.0699C28.7186 25.7855 28.9952 25.2481 28.9952 24.6791V9.28498C28.9952 8.71606 28.6878 8.1787 28.2267 7.89424L15.284 0.212917Z" fill="white"/>
</mask>
<g mask="url(#mask0_62_511)">
<path d="M28.2574 7.89452L15.253 0.213427C15.13 0.150317 14.9764 0.0870912 14.8534 0.0554199L0.281372 25.7226C0.404355 25.8806 0.558141 26.0071 0.7117 26.102L13.716 33.7832C14.0849 34.0044 14.5154 34.0676 14.915 33.9412L28.5955 8.21065C28.5032 8.08419 28.3803 7.98941 28.2573 7.89463" fill="url(#paint1_linear_62_511)"/>
</g>
<mask id="mask1_62_511" style="mask-type:luminance" maskUnits="userSpaceOnUse" x="0" y="-1" width="29" height="35">
<path d="M15.284 0.212917C14.7921 -0.071542 14.2079 -0.071542 13.716 0.212917L0.773348 7.89424C0.281416 8.1787 0.00476074 8.71606 0.00476074 9.28498V24.6791C0.00476074 25.2481 0.312218 25.7855 0.773348 26.0699L13.716 33.7511C14.2079 34.0357 14.7921 34.0357 15.284 33.7511L28.2267 26.0699C28.7186 25.7855 28.9952 25.2481 28.9952 24.6791V9.28498C28.9952 8.71606 28.6878 8.1787 28.2267 7.89424L15.284 0.212917Z" fill="white"/>
</mask>
<g mask="url(#mask1_62_511)">
<path d="M28.2881 26.0703C28.6571 25.8491 28.9337 25.4697 29.0567 25.0588L14.792 0.0237746C14.4231 -0.0394515 14.0234 -0.00789667 13.6853 0.213336L0.773193 7.8631L14.6998 33.973C14.8842 33.9413 15.0995 33.8781 15.284 33.7832L28.2881 26.0703Z" fill="url(#paint2_linear_62_511)"/>
</g>
</g>
<defs>
<linearGradient id="paint0_linear_62_511" x1="1976.81" y1="593.946" x2="501.301" y2="2848.74" gradientUnits="userSpaceOnUse">
<stop stop-color="#41873F"/>
<stop offset="0.3288" stop-color="#418B3D"/>
<stop offset="0.6352" stop-color="#419637"/>
<stop offset="0.9319" stop-color="#3FA92D"/>
<stop offset="1" stop-color="#3FAE2A"/>
</linearGradient>
<linearGradient id="paint1_linear_62_511" x1="1225.63" y1="1873.06" x2="4822.87" y2="-27.7224" gradientUnits="userSpaceOnUse">
<stop offset="0.1376" stop-color="#41873F"/>
<stop offset="0.4032" stop-color="#54A044"/>
<stop offset="0.7136" stop-color="#66B848"/>
<stop offset="0.9081" stop-color="#6CC04A"/>
</linearGradient>
<linearGradient id="paint2_linear_62_511" x1="-123.363" y1="1698.79" x2="2871.52" y2="1698.79" gradientUnits="userSpaceOnUse">
<stop offset="0.09192" stop-color="#6CC04A"/>
<stop offset="0.2864" stop-color="#66B848"/>
<stop offset="0.5968" stop-color="#54A044"/>
<stop offset="0.8624" stop-color="#41873F"/>
</linearGradient>
<clipPath id="clip0_62_511">
<rect width="29" height="34" fill="white"/>
</clipPath>
</defs>
</svg>
