<svg width="29" height="34" viewBox="0 0 29 34" fill="none" xmlns="http://www.w3.org/2000/svg">
<g clip-path="url(#clip0_62_456)">
<path d="M25.3458 6.67657C25.3231 6.50657 25.1782 6.41249 25.0585 6.40212C24.1759 6.33393 23.2932 6.26628 22.4105 6.19917C22.4105 6.19917 20.6545 4.4066 20.4617 4.20819C20.2689 4.0099 19.8922 4.07021 19.746 4.11446C19.7245 4.12098 19.3623 4.2359 18.7633 4.42651C18.1767 2.69088 17.1414 1.09591 15.3201 1.09591C15.2698 1.09591 15.2181 1.09801 15.1663 1.10103C14.6483 0.396698 14.0067 0.0906982 13.4525 0.0906982C9.20977 0.0906982 7.18282 5.54409 6.54729 8.31532C4.89869 8.84058 3.72752 9.21399 3.57792 9.26231C2.6577 9.55912 2.6286 9.58893 2.50776 10.4805C2.41683 11.1555 0.0090332 30.3013 0.0090332 30.3013L18.7711 33.9158L28.937 31.6546C28.937 31.6546 25.3682 6.84657 25.3458 6.67657ZM17.7263 4.75627L16.1387 5.26149C16.1393 5.14645 16.1399 5.03327 16.1399 4.9095C16.1399 3.83082 15.9942 2.9623 15.7606 2.2738C16.6991 2.3949 17.3241 3.49279 17.7263 4.75627ZM14.5965 2.4877C14.8574 3.1599 15.027 4.12459 15.027 5.42637C15.027 5.49297 15.0264 5.55387 15.0259 5.61547C13.9934 5.94429 12.8715 6.30129 11.7471 6.65945C12.3785 4.15416 13.5619 2.94414 14.5965 2.4877ZM13.3359 1.26079C13.5191 1.26079 13.7035 1.32471 13.8801 1.44965C12.5204 2.10753 11.0629 3.76445 10.4474 7.07327L7.85572 7.89859C8.57663 5.37479 10.2885 1.26079 13.3359 1.26079Z" fill="#95BF46"/>
<path d="M25.0585 6.40216C24.1759 6.33397 23.2932 6.26631 22.4105 6.19921C22.4105 6.19921 20.6544 4.40664 20.4617 4.20823C20.3896 4.1344 20.2923 4.09656 20.1906 4.08026L18.772 33.9156L28.937 31.6546C28.937 31.6546 25.3682 6.8466 25.3458 6.6766C25.323 6.5066 25.1782 6.41252 25.0585 6.40216Z" fill="#5E8E3E"/>
<path d="M15.3201 12.1777L14.0666 16.0116C14.0666 16.0116 12.9684 15.4089 11.6221 15.4089C9.6485 15.4089 9.54918 16.6824 9.54918 17.0033C9.54918 18.7543 13.9883 19.4252 13.9883 23.5266C13.9883 26.7535 11.9979 28.8313 9.31397 28.8313C6.09331 28.8313 4.44629 26.7704 4.44629 26.7704L5.30864 23.8408C5.30864 23.8408 7.00164 25.3353 8.43022 25.3353C9.36369 25.3353 9.74339 24.5796 9.74339 24.0274C9.74339 21.7434 6.10146 21.6415 6.10146 17.8883C6.10146 14.7295 8.30655 11.6726 12.7577 11.6726C14.4728 11.6726 15.3201 12.1777 15.3201 12.1777Z" fill="white"/>
</g>
<defs>
<clipPath id="clip0_62_456">
<rect width="29" height="34" fill="white"/>
</clipPath>
</defs>
</svg>
