<svg width="33" height="33" viewBox="0 0 33 33" fill="none" xmlns="http://www.w3.org/2000/svg">
<g clip-path="url(#clip0_62_460)">
<path d="M29.2242 25.3275L13.4007 32.9285C13.3026 32.9777 13.1942 33.0026 13.0844 33.0014C12.9467 33.0009 12.8117 32.9629 12.6939 32.8913C12.5896 32.8254 12.5036 32.7341 12.4442 32.6258C12.3848 32.5176 12.3539 32.3961 12.3543 32.2726V24.7458L3.80595 21.1681C3.67276 21.1129 3.55894 21.0194 3.47891 20.8994C3.39887 20.7795 3.35621 20.6385 3.35632 20.4943V0.7301C3.35632 0.481225 3.4842 0.24335 3.69732 0.11135C3.8021 0.0461985 3.92146 0.00818391 4.04461 0.000741761C4.16777 -0.00670039 4.29084 0.0166645 4.4027 0.0687246L20.8532 7.96535L28.5972 4.24872C28.7086 4.19522 28.8318 4.17093 28.9552 4.17814C29.0786 4.18536 29.1981 4.22384 29.3026 4.28997C29.4076 4.35598 29.4941 4.44771 29.5537 4.55647C29.6134 4.66523 29.6443 4.78742 29.6436 4.91147V24.6702C29.6417 24.8081 29.6015 24.9428 29.5274 25.0591C29.4534 25.1754 29.3484 25.2675 29.2242 25.3275ZM4.81657 1.89472V20.0062L12.3543 23.1646V19.525L7.6147 17.6137C7.43635 17.5401 7.2939 17.3996 7.21784 17.2223C7.14177 17.045 7.13813 16.8449 7.2077 16.665C7.28016 16.4857 7.42054 16.3423 7.59825 16.2661C7.77596 16.1898 7.9766 16.1869 8.15645 16.258L12.3543 17.9492V14.96L7.6147 13.0515C7.43635 12.9779 7.2939 12.8374 7.21784 12.66C7.14177 12.4827 7.13813 12.2827 7.2077 12.1027C7.28019 11.9234 7.42049 11.78 7.59812 11.7035C7.77576 11.627 7.9764 11.6238 8.15645 11.6943L12.3543 13.3856V12.5166C12.3543 12.2361 12.5124 11.9803 12.7668 11.8593L13.8503 11.3368L7.57757 8.48235C7.40176 8.4017 7.26487 8.25494 7.19665 8.07395C7.12842 7.89296 7.13437 7.69236 7.2132 7.51572C7.29415 7.33982 7.44107 7.20284 7.62221 7.1344C7.80335 7.06595 8.00415 7.07155 8.1812 7.14997L15.5608 10.5146L19.1537 8.78622L4.81657 1.89472ZM28.1778 6.07472L13.8146 12.9731V31.1135L28.1778 24.2082V6.07472ZM16.5591 15.5168L24.7884 11.5376C24.8747 11.496 24.9684 11.4718 25.0641 11.4664C25.1597 11.461 25.2555 11.4746 25.3459 11.5062C25.4363 11.5379 25.5196 11.5871 25.591 11.651C25.6624 11.7149 25.7205 11.7922 25.7619 11.8786C25.8042 11.9647 25.8289 12.0584 25.8346 12.1541C25.8404 12.2498 25.8271 12.3457 25.7955 12.4363C25.7639 12.5269 25.7147 12.6102 25.6506 12.6816C25.5865 12.753 25.5089 12.8109 25.4223 12.8521L17.1902 16.8314C17.0913 16.8782 16.9834 16.9031 16.8739 16.9042C16.7075 16.9059 16.5456 16.8506 16.415 16.7474C16.2844 16.6443 16.193 16.4996 16.1561 16.3373C16.1191 16.1751 16.1388 16.005 16.2119 15.8555C16.2849 15.706 16.407 15.586 16.5577 15.5155M16.5577 20.0777L24.7871 16.0998C24.8734 16.0582 24.967 16.034 25.0627 16.0287C25.1583 16.0233 25.2541 16.0368 25.3445 16.0685C25.4349 16.1002 25.5182 16.1493 25.5896 16.2132C25.661 16.2771 25.7191 16.3545 25.7606 16.4408C25.8026 16.5269 25.8271 16.6204 25.8328 16.716C25.8384 16.8116 25.8251 16.9073 25.7935 16.9977C25.7619 17.0881 25.7127 17.1714 25.6488 17.2426C25.5848 17.3139 25.5074 17.3718 25.4209 17.413L17.1888 21.3922C17.0899 21.4391 16.982 21.464 16.8726 21.4651C16.7067 21.4661 16.5455 21.4105 16.4155 21.3074C16.2855 21.2044 16.1945 21.0601 16.1577 20.8983C16.1208 20.7366 16.1402 20.5671 16.2127 20.4179C16.2852 20.2687 16.4078 20.1487 16.5577 20.0777ZM16.5563 24.6345L24.7857 20.6566C24.8719 20.6149 24.9655 20.5907 25.0611 20.5852C25.1567 20.5797 25.2524 20.5931 25.3428 20.6247C25.4332 20.6562 25.5165 20.7053 25.588 20.769C25.6594 20.8328 25.7176 20.91 25.7592 20.9962C25.8014 21.0823 25.8261 21.176 25.8319 21.2717C25.8376 21.3674 25.8243 21.4634 25.7928 21.5539C25.7612 21.6445 25.7119 21.7279 25.6478 21.7992C25.5838 21.8706 25.5062 21.9286 25.4196 21.9697L17.1874 25.949C17.0885 25.9959 16.9806 26.0207 16.8712 26.0218C16.7053 26.0228 16.5441 25.9672 16.4141 25.8642C16.2841 25.7611 16.1932 25.6168 16.1563 25.4551C16.1194 25.2933 16.1389 25.1239 16.2113 24.9747C16.2838 24.8255 16.405 24.7055 16.5549 24.6345" fill="url(#paint0_linear_62_460)"/>
</g>
<defs>
<linearGradient id="paint0_linear_62_460" x1="16.5" y1="-0.000610352" x2="16.5" y2="33.0014" gradientUnits="userSpaceOnUse">
<stop stop-color="#6942FD"/>
<stop offset="1" stop-color="#CCAAFC"/>
</linearGradient>
<clipPath id="clip0_62_460">
<rect width="33" height="33" fill="white"/>
</clipPath>
</defs>
</svg>
