<svg width="34" height="33" viewBox="0 0 34 33" fill="none" xmlns="http://www.w3.org/2000/svg">
<g clip-path="url(#clip0_62_462)">
<path d="M30.4144 9.38437C31.6044 11.4977 32.2816 13.9219 32.2816 16.5C32.2816 21.9711 29.2272 26.752 24.684 29.3219L29.3519 16.2222C30.2232 14.1048 30.5136 12.4121 30.5136 10.9093C30.5136 10.3524 30.4767 9.83813 30.4144 9.38437ZM19.108 9.52738C20.0246 9.48612 20.8533 9.383 20.8533 9.383C21.6778 9.27987 21.5815 8.10425 20.7584 8.14688C20.7584 8.14688 18.2722 8.3325 16.6784 8.3325C15.1711 8.3325 12.6409 8.12625 12.6409 8.12625C11.8122 8.085 11.7045 9.30188 12.5347 9.34313C12.5347 9.34313 13.2997 9.427 14.1284 9.46688L16.5084 15.7987L13.1509 25.5337L7.58483 9.4875C8.50425 9.44625 9.333 9.35 9.333 9.35C10.1617 9.24687 10.064 8.07125 9.24092 8.118C9.24092 8.118 6.76742 8.30775 5.16942 8.30775C4.88608 8.30775 4.54892 8.29675 4.19192 8.28712C6.95725 4.33125 11.6662 1.67063 17 1.67063C20.9794 1.67063 24.6004 3.14462 27.3218 5.566C27.2567 5.56187 27.1929 5.55363 27.1221 5.55363C25.6204 5.55363 24.5551 6.82275 24.5551 8.18538C24.5551 9.40913 25.2818 10.4445 26.0567 11.6655C26.639 12.6555 27.3176 13.9246 27.3176 15.7589C27.3176 17.017 26.8161 18.5006 26.1545 20.5425L24.6316 25.4719L19.1066 9.50813L19.108 9.52738ZM17 31.328C15.4997 31.328 14.0519 31.1176 12.682 30.7271L17.2677 17.7939L21.964 30.2885C21.998 30.36 22.0348 30.4283 22.0745 30.4934C20.4878 31.0338 18.7808 31.3307 17 31.3307M1.71558 16.5C1.71558 14.3495 2.19158 12.3063 3.04017 10.4637L10.3275 29.8499C7.74559 28.6337 5.56858 26.7366 4.04558 24.3757C2.52258 22.0148 1.71512 19.2855 1.71558 16.5ZM17 0C7.62875 0 0 7.40438 0 16.5C0 25.5956 7.62875 33 17 33C26.3712 33 34 25.5956 34 16.5C34 7.40438 26.3712 0 17 0Z" fill="url(#paint0_linear_62_462)"/>
</g>
<defs>
<linearGradient id="paint0_linear_62_462" x1="17" y1="0" x2="17" y2="33" gradientUnits="userSpaceOnUse">
<stop stop-color="white"/>
<stop offset="1" stop-color="#999999"/>
</linearGradient>
<clipPath id="clip0_62_462">
<rect width="34" height="33" fill="white"/>
</clipPath>
</defs>
</svg>
