<svg width="33" height="18" viewBox="0 0 33 18" fill="none" xmlns="http://www.w3.org/2000/svg">
<g clip-path="url(#clip0_62_486)">
<path d="M29.9049 0C28.7448 0 27.7394 0.633803 27.211 1.55916L27.1465 1.68592L24.7233 6.37606L21.6557 12.3211L23.6664 16.2127L23.7824 16.4282C24.0918 16.9606 24.5558 17.4042 25.1229 17.6704C25.69 17.3916 26.1541 16.9606 26.4634 16.4282L26.5794 16.2127L32.5987 4.5507L32.7405 4.27183C32.9081 3.89155 32.9983 3.48592 32.9983 3.04225C32.9983 1.35634 31.6191 0 29.9049 0ZM11.3313 5.65352L9.3335 1.77465L9.2175 1.55916C8.90816 1.02676 8.44414 0.583099 7.87701 0.316901C7.30988 0.595775 6.84586 1.02676 6.53652 1.55916L6.43341 1.77465L0.414095 13.4366L0.272313 13.7155C0.104752 14.0958 0.0145264 14.5014 0.0145264 14.9451C0.0145264 16.6183 1.39368 17.9873 3.10796 17.9873C4.268 17.9873 5.27337 17.3535 5.80183 16.4282L5.86628 16.3014L8.28947 11.6113L11.3442 5.6662L11.3313 5.65352Z" fill="#FF5000"/>
<path d="M29.9049 0C28.7449 0 27.7266 0.633803 27.2111 1.55915L27.1466 1.68592L24.7234 6.37606L21.6558 12.3211L23.6665 16.2127L23.7825 16.4282C24.0918 16.9606 24.5559 17.4042 25.123 17.6704C25.6901 17.3915 26.1541 16.9606 26.4635 16.4282L26.5795 16.2127L32.5988 4.5507L32.7406 4.27183C32.9081 3.89155 32.9984 3.48592 32.9984 3.04225C32.9984 1.35634 31.6063 0 29.9049 0Z" fill="url(#paint0_linear_62_486)"/>
<path d="M3.09514 17.9873C4.25518 17.9873 5.27344 17.3535 5.78901 16.4282L5.85346 16.3014L8.27665 11.6113L11.3443 5.66619L9.33357 1.77464L9.21757 1.55915C8.90823 1.02675 8.44421 0.583092 7.87708 0.316895C7.30995 0.595768 6.84594 1.02675 6.53659 1.55915L6.43348 1.77464L0.414167 13.4366L0.259495 13.7282C0.0919342 14.1084 0.00170898 14.5141 0.00170898 14.9577C0.00170898 16.631 1.38087 17.9873 3.09514 17.9873Z" fill="url(#paint1_linear_62_486)"/>
<path d="M11.3314 5.65352L9.33357 1.77465L9.21756 1.55916C8.90822 1.02676 8.44421 0.583099 7.87708 0.316901C8.05753 0.228169 8.26375 0.152113 8.45709 0.101408C8.70199 0.0380282 8.97267 0 9.23045 0H13.4581C14.6182 0.0126761 15.6236 0.633803 16.152 1.55916L16.2422 1.77465L21.6686 12.3338L23.6665 16.2127L23.7825 16.4282C24.0918 16.9606 24.5558 17.4042 25.123 17.6704C24.9425 17.7592 24.7363 17.8352 24.543 17.8859C24.2981 17.9493 24.0274 17.9873 23.7567 17.9873H19.5548C18.3948 17.9746 17.3894 17.3535 16.8609 16.4282L16.7449 16.2127L11.3314 5.65352Z" fill="#FF8C44"/>
</g>
<defs>
<linearGradient id="paint0_linear_62_486" x1="172.762" y1="1677.72" x2="1441.36" y2="575.34" gradientUnits="userSpaceOnUse">
<stop stop-color="#D4202C"/>
<stop offset="0.04166" stop-color="#D82D2B" stop-opacity="0.958"/>
<stop offset="0.176" stop-color="#E25226" stop-opacity="0.824"/>
<stop offset="0.3167" stop-color="#EB7123" stop-opacity="0.683"/>
<stop offset="0.4635" stop-color="#F28920" stop-opacity="0.536"/>
<stop offset="0.6188" stop-color="#F69A1E" stop-opacity="0.381"/>
<stop offset="0.7886" stop-color="#F9A41D" stop-opacity="0.211"/>
<stop offset="1" stop-color="#FAA71D" stop-opacity="0"/>
</linearGradient>
<linearGradient id="paint1_linear_62_486" x1="982.543" y1="89.3759" x2="-286.063" y2="1191.79" gradientUnits="userSpaceOnUse">
<stop stop-color="#D4202C"/>
<stop offset="0.04166" stop-color="#D82D2B" stop-opacity="0.958"/>
<stop offset="0.176" stop-color="#E25226" stop-opacity="0.824"/>
<stop offset="0.3167" stop-color="#EB7123" stop-opacity="0.683"/>
<stop offset="0.4635" stop-color="#F28920" stop-opacity="0.536"/>
<stop offset="0.6188" stop-color="#F69A1E" stop-opacity="0.381"/>
<stop offset="0.7886" stop-color="#F9A41D" stop-opacity="0.211"/>
<stop offset="1" stop-color="#FAA71D" stop-opacity="0"/>
</linearGradient>
<clipPath id="clip0_62_486">
<rect width="33" height="18" fill="white"/>
</clipPath>
</defs>
</svg>
