<svg width="33" height="33" viewBox="0 0 33 33" fill="none" xmlns="http://www.w3.org/2000/svg">
<g clip-path="url(#clip0_62_491)">
<path d="M33 16.7417C33 17.2466 32.8872 17.7192 32.6616 18.1596C32.436 18.6001 32.1299 19.0029 31.7432 19.3681C31.3564 19.7334 30.9214 20.0717 30.438 20.3833C29.9546 20.6948 29.4605 20.9687 28.9556 21.205C28.4507 21.4414 27.9458 21.6562 27.4409 21.8496C26.936 22.0429 26.4956 22.1933 26.1196 22.3008C26.2808 22.9775 26.4097 23.6543 26.5064 24.331C26.603 25.0078 26.6514 25.6899 26.6514 26.3774C26.6514 26.9467 26.603 27.5322 26.5064 28.1338C26.4097 28.7353 26.2271 29.2778 25.9585 29.7612C25.6899 30.2446 25.3301 30.6474 24.8789 30.9697C24.4277 31.292 23.8477 31.4477 23.1387 31.437C22.5479 31.437 21.9463 31.3242 21.334 31.0986C20.7217 30.873 20.1255 30.5776 19.5454 30.2124C18.9653 29.8471 18.4175 29.4604 17.9019 29.0522C17.3862 28.644 16.9189 28.2412 16.5 27.8437C16.0918 28.2304 15.6299 28.6333 15.1143 29.0522C14.5986 29.4712 14.0454 29.8579 13.4546 30.2124C12.8638 30.5669 12.2676 30.8569 11.666 31.0825C11.0645 31.3081 10.4629 31.4262 9.86133 31.437C9.16309 31.437 8.58838 31.2812 8.13721 30.9697C7.68604 30.6582 7.32617 30.2607 7.05762 29.7773C6.78906 29.2939 6.60645 28.7461 6.50977 28.1338C6.41309 27.5215 6.35938 26.936 6.34863 26.3774C6.34863 25.6899 6.39697 25.0078 6.49365 24.331C6.59033 23.6543 6.71924 22.9775 6.88037 22.3008C6.48291 22.1826 6.04248 22.0322 5.55908 21.8496C5.07568 21.667 4.57617 21.4575 4.06055 21.2212C3.54492 20.9848 3.04541 20.7109 2.56201 20.3994C2.07861 20.0879 1.64893 19.7495 1.27295 19.3842C0.896973 19.019 0.59082 18.6108 0.354492 18.1596C0.118164 17.7085 0 17.2358 0 16.7417C0 16.2368 0.112793 15.7641 0.338379 15.3237C0.563965 14.8833 0.870117 14.4804 1.25684 14.1152C1.64355 13.75 2.07861 13.4116 2.56201 13.1001C3.04541 12.7885 3.53955 12.5146 4.04443 12.2783C4.54932 12.042 5.0542 11.8271 5.55908 11.6338C6.06397 11.4404 6.5044 11.29 6.88037 11.1826C6.71924 10.5058 6.59033 9.82907 6.49365 9.15231C6.39697 8.47556 6.34863 7.79343 6.34863 7.10593C6.34863 6.53659 6.39697 5.95114 6.49365 5.34958C6.59033 4.74802 6.77295 4.20554 7.0415 3.72214C7.31006 3.23874 7.66992 2.83591 8.12109 2.51364C8.57227 2.19138 9.15234 2.03561 9.86133 2.04636C10.4521 2.04636 11.0537 2.15915 11.666 2.38474C12.2783 2.61032 12.8745 2.90573 13.4546 3.27097C14.0347 3.6362 14.5825 4.02292 15.0981 4.43112C15.6138 4.83933 16.0811 5.24753 16.5 5.65573C16.9082 5.26901 17.3701 4.86618 17.8857 4.44724C18.4014 4.02829 18.9546 3.6362 19.5454 3.27097C20.1362 2.90573 20.7324 2.61569 21.334 2.40085C21.9355 2.18601 22.5371 2.06784 23.1387 2.04636C23.8369 2.04636 24.4116 2.20212 24.8628 2.51364C25.314 2.82517 25.6738 3.22263 25.9424 3.70603C26.2109 4.18942 26.3936 4.73728 26.4902 5.34958C26.5869 5.96188 26.6406 6.54733 26.6514 7.10593C26.6514 7.79343 26.603 8.47556 26.5064 9.15231C26.4097 9.82907 26.2808 10.5058 26.1196 11.1826C26.5064 11.3008 26.9468 11.4511 27.4409 11.6338C27.9351 11.8164 28.4346 12.0259 28.9395 12.2622C29.4443 12.4985 29.9439 12.7724 30.438 13.084C30.9321 13.3955 31.3618 13.7339 31.7271 14.0991C32.0923 14.4643 32.3984 14.8725 32.6455 15.3237C32.8926 15.7749 33.0107 16.2475 33 16.7417ZM23.1387 3.59323C22.6768 3.59323 22.188 3.70065 21.6724 3.9155C21.1567 4.13034 20.6519 4.39353 20.1577 4.70505C19.6636 5.01657 19.1909 5.36032 18.7397 5.7363C18.2886 6.11228 17.9072 6.44528 17.5957 6.73532C18.1006 7.26169 18.5732 7.80417 19.0137 8.36276C19.4541 8.92136 19.8892 9.49606 20.3188 10.0869C21.0601 10.1513 21.7905 10.2426 22.5103 10.3608C23.23 10.479 23.9443 10.624 24.6533 10.7959C24.793 10.1943 24.9058 9.58737 24.9917 8.97507C25.0776 8.36276 25.1206 7.75046 25.1206 7.13815C25.1206 6.81589 25.0991 6.45065 25.0562 6.04245C25.0132 5.63425 24.9272 5.24753 24.7983 4.88229C24.6694 4.51706 24.4707 4.21091 24.2022 3.96384C23.9336 3.71677 23.5791 3.59323 23.1387 3.59323ZM9.7002 18.5786C9.51758 19.019 9.35108 19.4541 9.20068 19.8838C9.05029 20.3134 8.8999 20.7592 8.74951 21.2212C9.21143 21.3393 9.67334 21.436 10.1353 21.5112C10.5972 21.5864 11.0645 21.6562 11.5371 21.7207C11.2041 21.205 10.8872 20.6894 10.5864 20.1738C10.2856 19.6582 9.99024 19.1264 9.7002 18.5786ZM8.74951 12.2622C8.88916 12.7134 9.03418 13.1592 9.18457 13.5996C9.33496 14.04 9.50684 14.4804 9.7002 14.9209C9.97949 14.373 10.2749 13.8413 10.5864 13.3257C10.898 12.81 11.2148 12.289 11.5371 11.7627C11.0645 11.8271 10.5972 11.8969 10.1353 11.9721C9.67334 12.0473 9.21143 12.144 8.74951 12.2622ZM10.5059 16.7417C11.3652 18.5249 12.3643 20.2544 13.5029 21.9301C14.0078 21.9731 14.5073 22 15.0015 22.0107C15.4956 22.0215 15.9951 22.0322 16.5 22.0429C17.0049 22.0429 17.5044 22.0376 17.9985 22.0268C18.4927 22.0161 18.9922 21.9839 19.4971 21.9301C20.6357 20.2544 21.6348 18.5249 22.4941 16.7417C22.043 15.8286 21.5757 14.9477 21.0923 14.0991C20.6089 13.2505 20.0772 12.4018 19.4971 11.5532C18.9922 11.521 18.4927 11.4941 17.9985 11.4726C17.5044 11.4511 17.0049 11.4404 16.5 11.4404C15.9951 11.4404 15.4956 11.4511 15.0015 11.4726C14.5073 11.4941 14.0078 11.521 13.5029 11.5532C12.9336 12.3911 12.4072 13.2343 11.9238 14.083C11.4404 14.9316 10.9678 15.8178 10.5059 16.7417ZM21.4629 21.7207C21.9355 21.667 22.4028 21.6025 22.8647 21.5273C23.3267 21.4521 23.7886 21.3501 24.2505 21.2212C24.1108 20.77 23.9658 20.3296 23.8154 19.8999C23.665 19.4702 23.4932 19.0298 23.2998 18.5786C23.0205 19.1264 22.7305 19.6582 22.4297 20.1738C22.1289 20.6894 21.8066 21.205 21.4629 21.7207ZM23.2998 14.9209C23.4824 14.4804 23.6489 14.04 23.7993 13.5996C23.9497 13.1592 24.1001 12.7134 24.2505 12.2622C23.7886 12.1548 23.3267 12.0634 22.8647 11.9883C22.4028 11.9131 21.9355 11.8379 21.4629 11.7627C21.7852 12.2783 22.1021 12.7939 22.4136 13.3095C22.7251 13.8252 23.0205 14.3623 23.2998 14.9209ZM18.2886 9.94186C18.0093 9.56589 17.7246 9.20603 17.4346 8.86228C17.1445 8.51853 16.833 8.1694 16.5 7.81491C16.1777 8.15866 15.8716 8.50241 15.5815 8.84616C15.2915 9.18991 15.0015 9.55515 14.7114 9.94186C15.3022 9.90964 15.8984 9.89353 16.5 9.89353C17.0908 9.89353 17.687 9.90964 18.2886 9.94186ZM7.8794 7.13815C7.8794 7.75046 7.92236 8.36276 8.0083 8.97507C8.09424 9.58737 8.20703 10.1943 8.34668 10.7959C9.05567 10.624 9.77002 10.479 10.4897 10.3608C11.2095 10.2426 11.9399 10.1513 12.6812 10.0869C13.1001 9.49606 13.5298 8.92136 13.9702 8.36276C14.4106 7.80417 14.8887 7.26169 15.4043 6.73532C15.082 6.43454 14.7007 6.10153 14.2603 5.7363C13.8198 5.37106 13.3525 5.03269 12.8584 4.72116C12.3643 4.40964 11.854 4.14108 11.3276 3.9155C10.8013 3.68991 10.3125 3.58249 9.86133 3.59323C9.4209 3.59323 9.07178 3.71677 8.81397 3.96384C8.55615 4.21091 8.35742 4.51169 8.21777 4.86618C8.07813 5.22067 7.98682 5.60739 7.94385 6.02634C7.90088 6.44528 7.8794 6.81589 7.8794 7.13815ZM7.26709 20.8183C7.48193 20.1201 7.71826 19.4326 7.97608 18.7558C8.23389 18.0791 8.51318 17.4077 8.81397 16.7417C8.51318 16.0757 8.23389 15.4043 7.97608 14.7275C7.71826 14.0508 7.48193 13.3633 7.26709 12.665C7.00928 12.7402 6.69238 12.8423 6.31641 12.9712C5.94043 13.1001 5.54297 13.2612 5.12402 13.4546C4.70508 13.6479 4.28076 13.8628 3.85107 14.0991C3.42139 14.3354 3.04004 14.5932 2.70703 14.8725C2.37402 15.1518 2.09473 15.4472 1.86914 15.7588C1.64355 16.0703 1.53613 16.3979 1.54688 16.7417C1.54688 17.0854 1.64893 17.4131 1.85303 17.7246C2.05713 18.0361 2.33105 18.3315 2.6748 18.6108C3.01856 18.8901 3.3999 19.1479 3.81885 19.3842C4.23779 19.6206 4.66211 19.83 5.0918 20.0127C5.52148 20.1953 5.92432 20.3564 6.30029 20.4961C6.67627 20.6357 6.99854 20.7431 7.26709 20.8183ZM9.86133 29.8901C10.3232 29.8901 10.812 29.7827 11.3276 29.5678C11.8433 29.353 12.3481 29.0898 12.8423 28.7783C13.3364 28.4668 13.8091 28.1284 14.2603 27.7632C14.7114 27.3979 15.0928 27.0649 15.4043 26.7641C14.8994 26.2378 14.4268 25.6953 13.9863 25.1367C13.5459 24.5781 13.1108 23.998 12.6812 23.3965C11.9507 23.332 11.2256 23.2407 10.5059 23.1225C9.78613 23.0044 9.06641 22.8647 8.34668 22.7036C8.20703 23.3051 8.09424 23.9067 8.0083 24.5083C7.92236 25.1098 7.8794 25.7221 7.8794 26.3452C7.8794 26.6782 7.89551 27.0488 7.92774 27.457C7.95996 27.8652 8.05127 28.2519 8.20166 28.6172C8.35205 28.9824 8.55078 29.2832 8.79785 29.5195C9.04492 29.7558 9.39942 29.8794 9.86133 29.8901ZM14.7114 23.5576C15.27 24.2988 15.8662 25.0078 16.5 25.6845C17.123 25.0078 17.7192 24.2988 18.2886 23.5576C17.687 23.5898 17.0908 23.6059 16.5 23.6059C15.8877 23.6059 15.2915 23.5898 14.7114 23.5576ZM25.1206 26.3452C25.1206 25.7329 25.0776 25.1259 24.9917 24.5244C24.9058 23.9228 24.793 23.3159 24.6533 22.7036C23.9336 22.8647 23.2139 23.0044 22.4941 23.1225C21.7744 23.2407 21.0493 23.332 20.3188 23.3965C19.8999 23.9873 19.4702 24.562 19.0298 25.1206C18.5894 25.6792 18.1113 26.227 17.5957 26.7641C17.918 27.0649 18.2993 27.3925 18.7397 27.747C19.1802 28.1015 19.6475 28.4399 20.1416 28.7622C20.6357 29.0844 21.146 29.353 21.6724 29.5678C22.1987 29.7827 22.6875 29.8901 23.1387 29.8901C23.5791 29.8901 23.9282 29.7719 24.186 29.5356C24.4438 29.2993 24.6426 28.9985 24.7822 28.6333C24.9219 28.268 25.0132 27.8813 25.0562 27.4731C25.0991 27.0649 25.1206 26.6889 25.1206 26.3452ZM25.7329 20.8183C25.9907 20.7431 26.3076 20.6411 26.6836 20.5122C27.0596 20.3833 27.4624 20.2221 27.8921 20.0288C28.3218 19.8354 28.7461 19.6206 29.165 19.3842C29.584 19.1479 29.9653 18.8901 30.3091 18.6108C30.6528 18.3315 30.9268 18.0361 31.1309 17.7246C31.335 17.4131 31.4424 17.0854 31.4531 16.7417C31.4531 16.3979 31.3457 16.0703 31.1309 15.7588C30.916 15.4472 30.6421 15.1518 30.3091 14.8725C29.9761 14.5932 29.5947 14.3354 29.165 14.0991C28.7354 13.8628 28.311 13.6533 27.8921 13.4707C27.4731 13.2881 27.0703 13.1269 26.6836 12.9873C26.2969 12.8476 25.98 12.7402 25.7329 12.665C25.5181 13.3633 25.2817 14.0508 25.0239 14.7275C24.7661 15.4043 24.4868 16.0757 24.186 16.7417C24.4868 17.4077 24.7661 18.0791 25.0239 18.7558C25.2817 19.4326 25.5181 20.1201 25.7329 20.8183ZM16.5 19.8193C16.0811 19.8193 15.6836 19.7387 15.3076 19.5776C14.9316 19.4165 14.6094 19.1963 14.3408 18.917C14.0723 18.6377 13.8521 18.31 13.6802 17.9341C13.5083 17.5581 13.4277 17.1606 13.4385 16.7417C13.4385 16.3227 13.519 15.9253 13.6802 15.5493C13.8413 15.1733 14.0562 14.851 14.3247 14.5825C14.5933 14.3139 14.9209 14.0937 15.3076 13.9218C15.6943 13.75 16.0918 13.6694 16.5 13.6801C16.9189 13.6801 17.3164 13.7607 17.6924 13.9218C18.0684 14.083 18.3906 14.2978 18.6592 14.5664C18.9277 14.8349 19.148 15.1626 19.3198 15.5493C19.4917 15.936 19.5723 16.3335 19.5615 16.7417C19.5615 17.1606 19.481 17.5581 19.3198 17.9341C19.1587 18.31 18.9438 18.6377 18.6753 18.917C18.4067 19.1963 18.0791 19.4165 17.6924 19.5776C17.3057 19.7387 16.9082 19.8193 16.5 19.8193Z" fill="url(#paint0_linear_62_491)"/>
</g>
<defs>
<linearGradient id="paint0_linear_62_491" x1="16.5003" y1="2.04584" x2="16.5003" y2="31.4375" gradientUnits="userSpaceOnUse">
<stop stop-color="#8EDEFF"/>
<stop offset="1" stop-color="#5585FE"/>
</linearGradient>
<clipPath id="clip0_62_491">
<rect width="33" height="33" fill="white"/>
</clipPath>
</defs>
</svg>
